<?xml version="1.0" standalone="no"?><!DOCTYPE svg PUBLIC "-//W3C//DTD SVG 1.1//EN" "http://www.w3.org/Graphics/SVG/1.1/DTD/svg11.dtd"><svg class="icon" width="128px" height="128.00px" viewBox="0 0 1024 1024" version="1.1" xmlns="http://www.w3.org/2000/svg"><path d="M320.50517 1023.972H115.71117A116.733 116.733 0 0 1 0.00117 907.75V702.957a116.22 116.22 0 0 1 116.733-116.221h204.794a116.733 116.733 0 0 1 116.733 116.22v204.795a116.733 116.733 0 0 1-117.757 116.22zM123.39117 645.102a65.022 65.022 0 0 0-65.023 65.022v190.46a65.022 65.022 0 0 0 65.023 65.021h190.458a65.022 65.022 0 0 0 65.023-65.022V710.124a65.022 65.022 0 0 0-65.023-65.022z m741.867 378.87H660.46417A116.733 116.733 0 0 1 546.29117 907.75V702.957a116.22 116.22 0 0 1 116.733-116.221h204.794a116.22 116.22 0 0 1 116.733 116.22v204.795a116.733 116.733 0 0 1-119.293 116.22z m-197.114-378.87a65.022 65.022 0 0 0-65.023 65.022v190.46a65.022 65.022 0 0 0 65.023 65.021H858.60117a65.022 65.022 0 0 0 65.023-65.022V710.124a65.022 65.022 0 0 0-65.023-65.022zM320.50517 479.22H115.71117A116.733 116.733 0 0 1 0.00117 361.974V157.18A117.245 117.245 0 0 1 117.24717 41.983H322.04117a117.757 117.757 0 0 1 115.197 117.245v204.794a117.245 117.245 0 0 1-116.733 115.197zM123.90317 102.397a65.534 65.534 0 0 0-65.535 63.486v189.435a65.534 65.534 0 0 0 65.535 65.534h189.434a65.534 65.534 0 0 0 65.535-65.534V165.883a65.534 65.534 0 0 0-65.535-63.486z m412.66 240.634a117.245 117.245 0 0 1 0-164.86l144.38-143.868a116.733 116.733 0 0 1 164.86 0l144.38 143.868a117.245 117.245 0 0 1 0 164.86l-144.38 144.38a117.245 117.245 0 0 1-164.86 0l-144.38-144.38zM809.45217 79.87a66.046 66.046 0 0 0-92.158 0L582.64217 214.522a66.046 66.046 0 0 0 0 92.158l134.652 134.652a65.022 65.022 0 0 0 92.158 0l134.652-134.14a66.046 66.046 0 0 0 0-92.158z" fill="#ffffff" /></svg>