<?xml version="1.0" encoding="utf-8"?>
<!-- Generator: Adobe Illustrator 24.3.0, SVG Export Plug-In . SVG Version: 6.00 Build 0)  -->
<svg version="1.1" id="图层_1" xmlns="http://www.w3.org/2000/svg" xmlns:xlink="http://www.w3.org/1999/xlink" x="0px" y="0px"
	 viewBox="0 0 128 128" style="enable-background:new 0 0 128 128;" xml:space="preserve">
<style type="text/css">
	.st0{fill:#FFFFFF;}
</style>
<path class="st0" d="M108.4,62.1c0,9.6,0,19.3,0,28.9c0,4.7-1.9,8.4-5.4,11.2c-2.5,2-5.4,3.1-8.7,3c-19.4,0-38.8,0-58.2,0
	c-4.1,0-7.5-1.7-10.2-4.7c-2.5-2.7-3.7-6-3.7-9.8c0.1-5.7,0-11.4,0-17.1c0-1.1,0.9-2.3,2.3-2.6c1-0.2,2.3,0.6,2.7,1.8
	c0.2,0.5,0.3,1.1,0.3,1.6c0,5.8,0,11.5,0.1,17.3c0,3,1.7,5.3,4.2,6.9c1.5,1,3.3,1.4,5.1,1.4c19.1,0,38.1,0,57.2,0
	c4.2,0,7.1-2,8.7-5.8c0.4-1,0.5-2.2,0.5-3.3c0-19.2,0-38.4,0-57.6c0-4.2-2.7-7.5-6.1-8.7c-0.8-0.3-1.8-0.5-2.7-0.5
	c-4.9,0-9.8-0.1-14.8,0c-1.6,0-2.8-1.4-2.8-2.6c0-1.4,1-2.7,2.8-2.7c3.7,0,7.4,0,11.1,0c2,0,4.1,0.1,6.1,0.4
	c3.5,0.5,6.3,2.3,8.4,4.9c2.2,2.7,3.2,5.7,3.2,9.2C108.4,43,108.4,52.5,108.4,62.1L108.4,62.1z"/>
<path class="st0" d="M75.4,79.2c-0.4,1-1.2,1.9-2,2.7c-0.8,0.8-2.4,0.4-2.7-1.2c-0.4-2.7-0.9-5.4-1.7-7.9c-1.4-4.3-3.8-8.2-6.8-11.6
	c-3.9-4.4-8.5-8-14.1-10.1c-0.5-0.2-0.8-0.1-1.1,0.4c-0.4,0.9-0.8,1.8-1.2,2.7c-1.8,3.5-6.6,4.6-9.5,1.9c-1.2-1.1-2.3-2.5-3.3-3.8
	c-4-4.9-7.9-9.9-11.8-14.9c-2.9-3.7-1.9-8.8,2.3-10.8c7-3.5,14-6.8,21.1-10c3.6-1.6,7.4,0.7,8.2,4.1c0.4,1.5,0.4,3.1,0.5,4.6
	c0,0.7,0.3,1.3,1,1.6c3.3,1.5,6.3,3.5,9.1,5.8c7.7,6.4,12.3,14.7,14.6,24.4c1.1,4.8,1.3,9.6,0.4,14.5C77.3,74.3,76.5,76.8,75.4,79.2
	z M73.1,65.7c-0.2-2.3-0.4-4.5-0.9-6.7c-1.7-7.4-5-13.9-10.4-19.3c-2.9-2.9-6.2-5.3-9.9-7.2C51,32,50,31.6,49,31.3
	c-1.8-0.5-2.8-2.1-2.3-3.9c0.4-1.3,0.6-2.6,0.9-3.9c0.1-0.3,0-0.8-0.2-1c-0.2-0.2-0.7-0.2-1,0c-2.9,1.3-5.8,2.6-8.7,3.9
	c-3.5,1.6-6.9,3.2-10.3,4.8c-0.2,0.1-0.4,0.2-0.5,0.3c-1.3,0.7-1.5,1.6-0.6,2.7c1.2,1.5,2.4,3,3.6,4.5c2.5,3.1,4.9,6.2,7.4,9.2
	c0.9,1.1,1.8,2.1,2.7,3.1c0.6,0.6,1.1,0.4,1.3-0.5c0.4-1.4,0.7-2.9,1-4.3c0.4-1.7,1.8-2.5,3.5-2.2c3.1,0.6,6.1,1.6,8.8,3.2
	c3.8,2.2,7.1,5.1,10.1,8.5c2.5,2.9,4.6,6,6.3,9.4c0.8,1.5,1.3,3.2,2,4.7c0,0.1,0.1,0.2,0.2,0.3c0,0,0.1,0,0.1,0
	C73.2,68.8,73.3,67.2,73.1,65.7z"/>
</svg>
