<?xml version="1.0" standalone="no"?><!DOCTYPE svg PUBLIC "-//W3C//DTD SVG 1.1//EN" "http://www.w3.org/Graphics/SVG/1.1/DTD/svg11.dtd"><svg class="icon" width="128px" height="128.00px" viewBox="0 0 1024 1024" version="1.1" xmlns="http://www.w3.org/2000/svg"><path d="M856.75612641 513.1587143c0 77.01587677-0.15449524 154.03175354 0.07724761 231.12487792 0.07724763 37.23335266-15.06328583 66.8964386-43.56765746 89.83898163-20.16162873 16.29924774-43.33591462 24.41024781-69.75460054 24.33300019-155.26771545-0.30899048-310.45818329-0.15449524-465.72589873-0.15449525-32.90748596 0-59.71240998-13.7500763-81.49623872-37.3878479-20.23887635-21.93832398-29.8948288-48.12526703-29.50859069-78.40633392 0.54073334-45.73059083 0.3862381-91.38393402-0.07724762-137.11452484-0.07724763-9.19246674 6.95228576-18.77117157 18.4621811-21.08860015 8.18824768-1.62220001 18.77117157 5.17559052 21.78382873 14.213562 1.39045716 4.17137146 2.00843811 8.72898102 2.00843811 13.13209534 0.23174287 46.19407654-0.15449524 92.31090547 0.54073333 138.504982 0.3862381 24.33300019 13.51833344 42.09995271 33.21647644 55.1548004 12.2051239 8.11100006 26.10969544 10.89191438 40.63224792 10.89191438 152.40955353 0 304.81910706 0.07724763 457.2286606-0.07724762 33.37097168 0 57.00874328-15.83576203 69.6773529-46.58031463 3.24440003-7.95650482 4.24861909-17.3034668 4.24861908-26.03244783 0.23174287-153.56826782-0.07724763-307.21378327 0.30899047-460.78205108 0.07724763-33.91170503-21.39759064-60.09864807-48.97499084-69.44561005-6.79779052-2.31742859-14.21356201-3.63063813-21.32034302-3.70788574-39.31903839-0.3862381-78.71532441-0.54073334-118.03436279 0.07724762-13.13209534 0.23174287-22.71080017-10.96916198-22.71080017-20.70236206 0.07724763-11.12365723 8.18824768-21.70658112 22.71080017-21.86107635 29.66308594-0.23174287 59.4034195-0.3862381 89.06650543 0.07724761 16.14475251 0.23174287 32.44400024 0.69522858 48.43425751 2.85816193 27.73189545 3.78513337 50.05645752 18.07594299 67.51441956 39.55078125 17.38071443 21.39759064 25.56896211 45.88508606 25.33721923 73.84872436-0.3862381 76.62963867-0.07724763 153.18202972-0.07724761 229.73442079z" fill="#ffffff" /><path d="M279.0211792 170.0247879c39.78252412 1.31320954 76.78413391 11.43264771 112.08629609 29.04510499 71.22230529 35.37940979 127.45857239 86.44008637 163.7649536 157.73963927 13.13209534 25.72345734 23.40602875 52.76012422 29.1223526 81.26449586 1.23596192 6.10256196 5.09834289 8.72898102 10.73741914 10.42842865 11.74163818 3.63063813 23.86951447 6.72054292 34.83867645 12.2051239 25.182724 12.59136201 36.53812409 46.11682892 17.30346679 71.6085434-37.54234314 49.5929718-76.24340058 98.33621979-115.7169342 146.38423919-23.40602875 28.50437165-65.27423859 26.88217163-88.60301972-2.00843811-31.90326691-39.39628601-63.26580048-79.17881013-94.55108642-119.03858185-8.26549531-10.50567627-16.83998108-21.16584778-23.25153351-32.83023834-15.21778107-27.65464783 1.39045716-63.3430481 32.21225739-70.75881958 7.72476196-1.85394287 15.52677155-3.24440003 23.32878113-4.78935242 4.17137146-0.84972382 5.63907623-3.01265717 5.02109527-7.49301911-6.25705719-47.50728607-25.72345734-89.52999115-53.1463623-128.07655333-21.08860016-29.66308594-46.8120575-55.00030518-77.9428482-73.69422914-18.38493347-11.04640961-38.5465622-19.3119049-58.55369568-27.34565735-11.81888581-4.7121048-12.2051239-18.30768586-4.40311433-22.94254302 7.64751435-4.55760956 15.99025727-9.11521912 24.56474305-10.73741914 20.8568573-3.86238098 42.02270508-6.02531433 63.18855285-8.96072388z m2.00843811 42.0999527c-0.15449524 0.30899048-0.30899048 0.69522858-0.3862381 1.00421906 0.61798096 0.61798096 1.23596192 1.23596192 2.00843811 1.77669524 11.12365723 7.95650482 22.94254303 15.14053344 33.29372406 24.10125733 22.86529541 19.85263825 43.64490509 41.63646698 61.56635285 66.20121002 20.93410492 28.7361145 37.54234314 59.63516235 47.81627655 93.62411499 7.26127625 24.10125732 10.11943818 49.05223847 8.96072388 74.38945771-0.61798096 13.7500763-9.57870484 23.17428589-23.40602876 23.2515335-11.74163818 0.07724763-23.56052399-0.07724763-35.30216217 0.07724762-7.18402863 0.07724763-9.81044769 3.86238098-5.94806671 9.65595246 6.10256196 9.26971435 12.74585724 18.23043823 19.54364777 27.03666686 19.46640015 24.87373352 39.16454316 49.51572419 58.70819092 74.31221009 9.65595246 12.2051239 19.00291443 24.64199066 28.89060974 36.53812408 7.49301911 8.96072388 14.29080964 8.72898102 22.40180969 0.15449525 1.08146667-1.1587143 2.08568573-2.47192383 3.08990479-3.78513338 18.77117157-23.94676208 37.69683838-47.81627656 56.39076233-71.84028625 15.68126679-20.16162873 31.20803833-40.40050507 46.50306701-60.79387664 1.54495239-2.08568573 2.54917146-6.17980958 1.5449524-8.11100006-1.00421906-1.9311905-4.86660004-3.08990479-7.57026673-3.24440003-10.58292389-0.3862381-21.2430954-0.7724762-31.74877167 0-14.59980011 1.00421906-25.56896211-9.81044769-25.87795257-24.95098113-0.15449524-8.41999055-1.23596192-16.99447632-3.24440002-25.10547639-8.03375244-31.98051453-20.77960969-62.02983857-38.31481935-89.99347686-32.36675263-51.75590515-77.4793625-89.14375305-131.78443908-115.7169342-16.22200012-7.95650482-33.52546692-13.67282868-50.67443847-19.46640015-11.97338105-3.86238098-24.33300019-6.10256196-36.46087647-9.11521912z" fill="#ffffff" /></svg>