<?xml version="1.0" standalone="no"?><!DOCTYPE svg PUBLIC "-//W3C//DTD SVG 1.1//EN" "http://www.w3.org/Graphics/SVG/1.1/DTD/svg11.dtd"><svg class="icon" width="128px" height="128.00px" viewBox="0 0 1024 1024" version="1.1" xmlns="http://www.w3.org/2000/svg"><path d="M433.703385 478.798769h315.076923c19.771077 0 38.636308-20.007385 38.636307-39.620923s-18.865231-39.148308-38.636307-39.148308h-315.076923c-19.771077 0-39.384615 19.771077-39.384616 39.384616s19.613538 39.384615 39.384616 39.384615z m0-157.538461h315.076923c19.771077 0 38.636308-21.858462 38.636307-41.432616 0-19.613538-18.865231-37.336615-38.636307-37.336615h-315.076923c-32.452923 4.253538-36.548923 37.415385-36.548923 37.336615-0.039385 19.613538 16.777846 41.432615 36.548923 41.432616z m557.961846 314.407384a112.128 112.128 0 0 0-44.150154-27.175384l-2.717539-0.866462V160.689231a115.160615 115.160615 0 0 0-114.924307-115.121231H353.476923a114.806154 114.806154 0 0 0-107.953231 76.878769l-0.94523 2.717539H194.953846c-63.330462 0-115.712 53.838769-115.712 117.326769v354.461538l-1.929846 11.85477a115.239385 115.239385 0 0 0-76.839385 108.071384v158.680616a115.239385 115.239385 0 0 0 114.924308 115.239384h793.206154a115.160615 115.160615 0 0 0 114.924308-115.121231v-158.680615a111.537231 111.537231 0 0 0-31.862154-81.329231zM315.549538 163.721846c0-23.945846 15.478154-39.384615 39.384616-39.384615h315.076923l8.231385-8.113231-8.231385 8.113231h157.538461c23.985231 0 39.384615 15.438769 39.384616 39.384615v433.230769h-236.307692c-15.202462 0-34.619077 14.257231-40.01477 28.317539a83.101538 83.101538 0 0 1-78.887384 56.083692 83.849846 83.849846 0 0 1-79.005539-56.201846c-5.12-14.020923-23.276308-28.199385-38.4-28.199385h-78.769231v-433.230769z m-157.538461 78.769231c0-23.945846 15.36-39.384615 39.384615-39.384615h39.384616v393.846153h-78.769231v-354.461538z m748.307692 669.538461h-787.692307c-24.024615-0.236308-39.384615-15.635692-39.384616-39.384615v-157.538461c0-23.945846 15.478154-39.384615 39.384616-39.384616h236.307692l23.000615-0.078769a154.427077 154.427077 0 0 0 133.907693 77.666461 154.781538 154.781538 0 0 0 133.907692-77.666461l1.142154-2.008615h263.246769c23.985231 0 35.564308 17.486769 35.564308 41.472v157.538461c0 23.630769-15.399385 39.187692-39.384616 39.384615z m4.371693 7.68" fill="#ffffff" /></svg>