<?xml version="1.0" standalone="no"?><!DOCTYPE svg PUBLIC "-//W3C//DTD SVG 1.1//EN" "http://www.w3.org/Graphics/SVG/1.1/DTD/svg11.dtd"><svg class="icon" width="128px" height="128.00px" viewBox="0 0 1024 1024" version="1.1" xmlns="http://www.w3.org/2000/svg"><path d="M952.276114 648.484571L761.051429 729.819429v212.3776l191.224685-88.020115V648.484571z m0-47.689142v-0.877715l-213.167543-98.113828-197.368685 90.843428 210.8416 93.066972 199.694628-84.904229zM528.735086 634.88v220.5696l188.430628 86.747429V718.043429L528.735086 634.88z m-46.665143 14.804114l-188.445257 80.120686v212.3776l188.430628-86.7328V649.684114z m0-51.053714l-210.388114-96.841143-197.368686 90.843429 210.826971 93.0816 196.9152-83.719315v-3.364571z m23.332571-37.566171L739.108571 453.485714l257.053258 118.315886v310.4768L739.108571 1000.594286 505.417143 893.015771 271.681829 1000.594286 14.628571 882.2784V571.8016L271.681829 453.485714l233.720685 107.578515zM249.738971 942.1824v-224.109714L58.514286 633.621943V854.162286l191.224685 88.020114z" fill="#ffffff" /><path d="M723.368229 199.109486l-205.121829 93.666743v257.360457l205.121829-94.4128V199.109486z m-34.055315-32.694857L496.303543 77.575314 292.717714 171.256686l197.002972 86.293943 199.5776-91.136zM474.360686 550.136686V298.715429L269.238857 208.896v246.842514l205.121829 94.4128zM496.303543 29.257143l270.9504 124.708571v329.874286L496.303543 608.548571l-270.9504-124.708571v-329.874286L496.303543 29.257143z" fill="#ffffff" /></svg>