<?xml version="1.0" standalone="no"?><!DOCTYPE svg PUBLIC "-//W3C//DTD SVG 1.1//EN" "http://www.w3.org/Graphics/SVG/1.1/DTD/svg11.dtd"><svg class="icon" width="128px" height="128.00px" viewBox="0 0 1024 1024" version="1.1" xmlns="http://www.w3.org/2000/svg"><path d="M492.544 316.416c-73.216 0-133.12-59.904-133.12-133.12s59.904-133.12 133.12-133.12 133.12 59.904 133.12 133.12-59.904 133.12-133.12 133.12z m0-204.8c-39.424 0-71.68 32.256-71.68 71.68s32.256 71.68 71.68 71.68 71.68-32.256 71.68-71.68-32.256-71.68-71.68-71.68zM195.584 879.616c-73.216 0-133.12-59.904-133.12-133.12s59.904-133.12 133.12-133.12 133.12 59.904 133.12 133.12-59.904 133.12-133.12 133.12z m0-204.8c-39.424 0-71.68 32.256-71.68 71.68s32.256 71.68 71.68 71.68 71.68-32.256 71.68-71.68-32.256-71.68-71.68-71.68zM840.704 859.136c-73.216 0-133.12-59.904-133.12-133.12s59.904-133.12 133.12-133.12 133.12 59.904 133.12 133.12-59.904 133.12-133.12 133.12z m0-204.8c-39.424 0-71.68 32.256-71.68 71.68s32.256 71.68 71.68 71.68 71.68-32.256 71.68-71.68-32.256-71.68-71.68-71.68z" fill="#ffffff" /><path d="M512 955.904c-100.864 0-197.632-38.4-272.384-107.52l-26.112-24.064 27.648-22.016c16.384-13.312 25.6-33.28 25.6-54.784 0-39.424-32.256-71.68-71.68-71.68-9.728 0-18.944 1.536-27.648 5.12l-32.256 13.312-9.216-33.792c-9.216-34.816-13.824-68.608-13.824-103.424 0-171.008 108.544-323.072 270.336-378.368l31.744-10.752 7.68 32.768c7.68 32.256 36.352 54.784 69.632 54.784 35.84 0 66.048-26.624 71.168-62.464l4.608-33.28 32.768 7.68c167.936 38.4 291.84 178.688 308.736 350.208 1.536 16.896-10.752 31.744-27.648 33.792-16.896 1.536-31.744-10.752-33.792-27.648-12.8-136.192-104.96-248.832-232.448-289.28-20.48 48.64-68.096 81.92-122.88 81.92-49.664 0-94.208-27.136-116.736-69.12C253.952 301.056 174.08 421.888 174.08 556.544c0 19.456 1.536 38.912 5.12 58.368 5.12-0.512 10.752-1.024 16.384-1.024 73.216 0 133.12 59.904 133.12 133.12 0 27.648-8.192 54.272-24.064 76.288 59.392 46.08 132.096 71.168 207.36 71.168 83.968 0 162.816-30.208 224.256-85.504-18.432-23.552-29.184-52.736-29.184-82.944 0-73.216 59.904-133.12 133.12-133.12 6.656 0 12.288 0.512 17.408 1.024 16.896 2.048 29.184 16.896 27.136 33.792s-16.896 29.184-33.792 27.136c-4.096-0.512-7.68-1.024-10.752-1.024-39.424 0-71.68 32.256-71.68 71.68 0 23.04 11.264 44.544 29.696 57.856l28.16 20.48-24.064 25.6c-75.776 81.92-178.688 126.464-290.304 126.464z" fill="#ffffff" /></svg>