<?xml version="1.0" standalone="no"?><!DOCTYPE svg PUBLIC "-//W3C//DTD SVG 1.1//EN" "http://www.w3.org/Graphics/SVG/1.1/DTD/svg11.dtd"><svg class="icon" width="128px" height="128.00px" viewBox="0 0 1024 1024" version="1.1" xmlns="http://www.w3.org/2000/svg"><path d="M736 960h-448C166.4 960 64 857.6 64 736v-448C64 166.4 166.4 64 288 64h448C857.6 64 960 166.4 960 288v448c0 121.6-102.4 224-224 224z m166.4-672c0-89.6-76.8-166.4-166.4-166.4h-448c-89.6 0-166.4 76.8-166.4 166.4v448c0 89.6 76.8 166.4 166.4 166.4h448c89.6 0 166.4-76.8 166.4-166.4v-448z m-499.2 390.4h390.4v57.6H403.2v-57.6z m0-224h390.4V512H403.2v-57.6z m0-224h390.4v57.6H403.2v-57.6z m-172.8 448h57.6v57.6h-57.6v-57.6z m0-224h57.6V512h-57.6v-57.6z m0-224h57.6v57.6h-57.6v-57.6z" fill="#ffffff" /></svg>