<?xml version="1.0" standalone="no"?><!DOCTYPE svg PUBLIC "-//W3C//DTD SVG 1.1//EN" "http://www.w3.org/Graphics/SVG/1.1/DTD/svg11.dtd"><svg class="icon" width="128px" height="128.00px" viewBox="0 0 1024 1024" version="1.1" xmlns="http://www.w3.org/2000/svg"><path d="M788.691 664.113l-31.566 31.563 107.087 113.864h-346.99v40.667h346.99l-107.087 113.861 31.566 31.565 165.759-165.759-31.565-28.851-134.195-136.91zM512.229 1.148c-282.249 0-511.055 228.809-511.055 511.056s228.806 511.055 511.055 511.055c8.805 0 17.56-0.222 26.255-0.664l0.192-95.357h-42.998v33.845c-63.359-49.956-139.988-132.381-176.744-204.993 45.427-15.393 110.687-31.92 165.899-34.356l47.445-0.028v-196.679h239.332c-0.819 16.64-3.739 47.993-5.989 64.218h41.147c2.052-16.245 3.474-46.243 4.217-62.862h170.77c-4.231 70.641-24.525 150.498-57.265 208.879h47.668c32.751-67.404 51.129-143.083 51.129-223.060-0.004-282.245-228.814-511.053-511.059-511.053v0zM443.504 50.113c-52.747 49.281-127.909 126.799-160.565 191.994-33.965-16.495-77.575-39.286-99.276-61.97 58.701-55.468 178.194-111.802 259.841-130.023v0zM153.087 213.492c25.737 26.213 72.276 49.267 110.705 68.076-25.921 63.414-41.473 132.164-44.547 204.148h-176.619c5.937-103.839 46.568-198.372 110.461-272.224v0zM165.765 823.441c-63.124-73.402-116.899-194.187-123.061-297.058h176.59c3.173 70.924 21.174 156.316 46.553 218.916-38.585 18.965-74.363 51.706-100.083 78.143v0zM444.865 975.655c-82.101-18.319-193.823-64.146-252.689-120.097 21.655-22.928 55.853-59.495 89.986-76.169 32.733 65.824 109.534 146.59 162.702 196.265v0zM491.612 687.821c-62.092 2.619-140.682 19.503-192.047 37.806-22.665-56.121-36.425-135.772-39.545-199.244h231.59l0.001 161.438zM491.612 485.713h-233.011c3.028-64.56 18.435-135.725 41.656-192.687 51.196 18.158 129.542 36.305 191.351 38.911v153.776h0.004zM491.612 291.248c-54.871-2.42-132.030-16.133-177.253-31.359 36.709-71.92 114.372-148.347 177.253-197.926v229.285zM839.445 180.137c-20.701 21.636-58.626 49.026-90.556 65.076-32.145-63.495-108.958-154.494-160.256-202.82 78.575 18.971 193.951 84.019 250.811 137.743v0zM533.634 50.232c65.255 49.934 140.798 137.052 178.698 210.679-46.556 16.259-122.964 27.901-180.053 30.365l1.354-241.044zM532.278 485.713v-156.46c64.074-2.643 144.414-13.344 196.988-32.626 23.673 57.47 37.99 123.838 41.051 189.088l-238.039-0.001zM811.036 485.713c-3.116-72.894-19.012-142.477-45.529-206.557 36.355-18.356 81.216-40.562 105.866-65.666 63.893 73.852 104.521 168.386 110.458 272.223h-170.795z" fill="#ffffff" /></svg>