<?xml version="1.0" standalone="no"?><!DOCTYPE svg PUBLIC "-//W3C//DTD SVG 1.1//EN" "http://www.w3.org/Graphics/SVG/1.1/DTD/svg11.dtd"><svg class="icon" width="128px" height="111.46px" viewBox="0 0 1176 1024" version="1.1" xmlns="http://www.w3.org/2000/svg"><path d="M981.80271135 319.21770332v0.195066H308.82433235c-48.376417 0-87.779789-39.403372-87.779788-87.779788s39.403372-87.779789 87.779788-87.779789h702.238309c15.41023-0.877798 27.6994-13.654634 27.699399-29.259929s-12.28917-28.382132-27.699399-29.25993H308.82433235c-79.294409 0-144.056386 63.396514-146.202114 142.203257h-0.097533v624.21183c0 59.202591 48.083818 107.286408 107.286408 107.286408h770.511477v-639.817125h-58.519859z m-711.991618 581.297266c-26.919135 0-48.766549-21.847414-48.766549-48.766549V348.57516632c24.480808 18.433756 54.911134 29.357463 87.779788 29.357462h672.978379v522.582341H269.81109335z" fill="#ffffff" /><path d="M326.77042235 200.42238932c-16.092961 0-29.25993 13.166968-29.259929 29.25993s13.166968 29.25993 29.259929 29.259929h682.731689c16.092961 0 29.25993-13.166968 29.259929-29.259929s-13.166968-29.25993-29.259929-29.25993h-682.731689zM662.86947935 573.97415632l-61.445852-130.889418L539.97777535 573.97415632l-135.083341 20.579484 97.630632 100.166492-23.310411 142.788456L601.42362735 770.01568432l122.208973 67.492904-23.310411-142.788456 97.630632-100.068959L662.86947935 573.97415632z m9.265645 190.579674L601.42362735 725.44305832l-70.711496 39.110772 13.557101-83.000667-58.422326-59.885322 80.562339-12.28917 35.014382-74.515288 35.014383 74.515288 80.562339 12.28917-58.422326 59.885322 13.557101 83.000667z" fill="#ffffff" /></svg>