<?xml version="1.0" encoding="utf-8"?>
<!-- Generator: Adobe Illustrator 24.3.0, SVG Export Plug-In . SVG Version: 6.00 Build 0)  -->
<svg version="1.1" id="图层_1" xmlns="http://www.w3.org/2000/svg" xmlns:xlink="http://www.w3.org/1999/xlink" x="0px" y="0px"
	 viewBox="0 0 128 128" style="enable-background:new 0 0 128 128;" xml:space="preserve">
<style type="text/css">
	.st0{fill:#FFFFFF;}
</style>
<path class="st0" d="M64.3,6.4c-30.9,0-56,24.2-56,54.1c0,29.8,25,54.1,55.8,54.1h0.2c13.4-0.1,12-13.2,9.2-18.4
	c-4.3-8.1,2.1-10.4,8.4-12c8.9-2.2,36.6,3.1,37.7-23.8C120.9,28.6,95.3,6.4,64.3,6.4z M111.6,60.1c-0.2,3.6-0.9,6.5-2.2,8.6
	c-1,1.6-2.5,2.9-4.5,3.9c-4.5,2.3-10.9,2.6-16.1,2.9c-3.3,0.2-6.2,0.3-8.8,1c-3.8,0.9-11.7,2.9-14.8,9.8c-1.3,2.9-2.1,7.6,1.2,13.8
	c0.2,0.4,0.7,1.7,0.8,3.3c0.1,1.4-0.1,2.3-0.3,2.7c-0.1,0.1-0.1,0.1-0.3,0.2c-0.2,0.1-0.9,0.4-2.5,0.4h-0.2
	c-6.5,0-12.8-1.2-18.7-3.7c-5.7-2.3-10.8-5.7-15.2-10c-4.4-4.2-7.8-9.2-10.2-14.7c-2.5-5.7-3.7-11.7-3.7-17.8
	c0-6.2,1.2-12.2,3.7-17.9c2.4-5.5,5.8-10.4,10.2-14.7c4.4-4.3,9.5-7.6,15.3-10c5.9-2.4,12.2-3.7,18.8-3.7c7.1,0,13.8,1.3,20.1,3.9
	c6.1,2.5,11.4,6.1,15.7,10.6c3.9,4,6.8,8.7,8.8,13.8C111,48.1,111.9,53.9,111.6,60.1z"/>
<path class="st0" d="M34.9,43.3c-5.7,0-10.4,4.7-10.4,10.4S29.1,64,34.9,64s10.4-4.7,10.4-10.4S40.6,43.3,34.9,43.3z M88.6,32.5
	c0-5.7-4.7-10.4-10.4-10.4c-5.7,0-10.4,4.7-10.4,10.4s4.7,10.4,10.4,10.4C83.9,42.9,88.6,38.3,88.6,32.5z M51.2,22.1
	c-5.7,0-10.4,4.7-10.4,10.4s4.7,10.4,10.4,10.4s10.4-4.7,10.4-10.4S56.9,22.1,51.2,22.1z M94.3,43.3c-5.7,0-10.4,4.7-10.4,10.4
	S88.5,64,94.3,64s10.4-4.7,10.4-10.4S100,43.3,94.3,43.3z"/>
</svg>
