<?xml version="1.0" encoding="utf-8"?>
<!-- Generator: Adobe Illustrator 24.2.3, SVG Export Plug-In . SVG Version: 6.00 Build 0)  -->
<svg version="1.1" id="图层_1" xmlns="http://www.w3.org/2000/svg" xmlns:xlink="http://www.w3.org/1999/xlink" x="0px" y="0px"
	 viewBox="0 0 54 60" style="enable-background:new 0 0 54 60;" xml:space="preserve">
<style type="text/css">
	.st0{fill:#4B86FC;}
</style>
<path class="st0" d="M40.3,1.1L40.3,1.1l12.5,13.1c0.3,0.4,0.5,0.9,0.5,1.5v34.8c0,5.2-4,9.5-9,9.5H9c-5,0-9-4.3-9-9.5v-41
	C0,4.3,4,0,9,0h29.6c0.5,0,0.8,0.2,1.2,0.6L40.3,1.1L40.3,1.1z M37.4,3.9H9c-3,0-5.5,2.6-5.5,5.6v40.9c0,3,2.3,5.4,5.3,5.4h35.6
	c3,0,5.3-2.4,5.3-5.4V16.6l-0.5-0.4H38.9c-1,0-1.8-0.9-1.8-2.1l0,0V3.9H37.4z M40.9,7.3v4.9h4.7L40.9,7.3z"/>
<path class="st0" d="M16.1,46.8c-0.5,0-1.1-0.1-1.6-0.5c-1.2-0.8-1.3-1.9-1.3-2.4c0-1.1,0.7-2.8,5.4-5.4c0.8-3.4,1.3-7.5,1.5-11.3
	c-2.5-2.7-3.6-4.8-3.3-6.5c0.1-0.5,0.5-1.6,2-2.2c0.9-0.4,1.8-0.1,2.5,0.5c0.4,0.4,1.6,1.6,1.6,7c2.6,2.6,6.3,5.4,9.6,7.3
	c1.1-0.3,2.2-0.3,3.3-0.4c3.7,0,4.2,2,4.2,3c0,0.9-0.3,1.5-0.7,1.7c-0.3,0.3-0.9,0.7-1.8,0.7c-1.3,0-3.2-0.7-5.5-2
	c-3.4,0.8-7.7,2.3-11.1,4C19.7,44.6,18.1,46.8,16.1,46.8L16.1,46.8z M21.9,36.6L21.9,36.6c2.1-0.8,4.2-1.6,6.5-2.3l-0.3-0.1h0.3
	c-2-1.3-3.8-2.7-5.5-4.3V30l-0.1-0.1C22.7,32.2,22.3,34.5,21.9,36.6C21.8,36.7,21.9,36.6,21.9,36.6z"/>
</svg>
