<?xml version="1.0" encoding="utf-8"?>
<!-- Generator: Adobe Illustrator 24.2.3, SVG Export Plug-In . SVG Version: 6.00 Build 0)  -->
<svg version="1.1" id="图层_1" xmlns="http://www.w3.org/2000/svg" xmlns:xlink="http://www.w3.org/1999/xlink" x="0px" y="0px"
	 viewBox="0 0 54 60" style="enable-background:new 0 0 54 60;" xml:space="preserve">
<style type="text/css">
	.st0{fill:#E54D4D;}
</style>
<path class="st0" d="M31.7,4.6c-2.6-4.4-6.8-4.4-9.4,0L1.3,40c-2.6,4.4-0.4,7.9,4.6,7.9H48c5.2,0,7.2-3.6,4.6-7.9L31.7,4.6z
	 M24.2,14.6c0.8-0.8,1.7-1.2,2.9-1.2c1.2,0,2.1,0.4,2.9,1.2c0.7,0.8,1.2,1.8,1.2,2.9c0,1-1.6,8.5-2.1,13.9h-3.8
	c-0.4-5.4-2.1-12.9-2.1-13.9C23,16.4,23.4,15.4,24.2,14.6z M29.9,40.5c-0.8,0.7-1.8,1.1-2.9,1.1c-1.1,0-2.1-0.4-2.9-1.2
	c-0.8-0.7-1.2-1.7-1.2-2.8c0-1.1,0.4-2,1.2-2.8c0.7-0.7,1.8-1.2,2.9-1.2c1.1,0,2.1,0.4,2.9,1.2c0.8,0.8,1.2,1.7,1.2,2.8
	C31.1,38.8,30.7,39.7,29.9,40.5z"/>
</svg>
