<?xml version="1.0" encoding="utf-8"?>
<!-- Generator: Adobe Illustrator 24.2.3, SVG Export Plug-In . SVG Version: 6.00 Build 0)  -->
<svg version="1.1" id="图层_1" xmlns="http://www.w3.org/2000/svg" xmlns:xlink="http://www.w3.org/1999/xlink" x="0px" y="0px"
	 viewBox="0 0 54 60" style="enable-background:new 0 0 54 60;" xml:space="preserve">
<style type="text/css">
	.st0{fill:#4B86FC;}
</style>
<path class="st0" d="M40.3,1.1L40.3,1.1l12.5,13.1c0.3,0.4,0.5,0.9,0.5,1.5v34.8c0,5.2-4,9.5-9,9.5H9c-5,0-9-4.3-9-9.5v-41
	C0,4.3,4,0,9,0h29.6c0.5,0,0.8,0.2,1.2,0.6L40.3,1.1L40.3,1.1z M37.4,3.9H9c-3,0-5.5,2.6-5.5,5.6v40.9c0,3,2.3,5.4,5.3,5.4h35.6
	c3,0,5.3-2.4,5.3-5.4V16.6l-0.5-0.4H38.9c-1,0-1.8-0.9-1.8-2.1l0,0V3.9H37.4z M40.9,7.3v4.9h4.7L40.9,7.3z"/>
<path class="st0" d="M26.4,17.4h6v2.9h-6C26.4,20.3,26.4,17.4,26.4,17.4z M20.4,20.4h6v2.9h-6V20.4z M26.4,23.1h6V26h-6
	C26.4,26,26.4,23.1,26.4,23.1z M20.4,26.1h6V29h-6V26.1z M26.4,28.8h6v2.9h-6C26.4,31.7,26.4,28.8,26.4,28.8z M20.4,31.8h6v2.9h-6
	V31.8z M26.4,34.7h6v2.9h-6C26.4,37.6,26.4,34.7,26.4,34.7z M20.4,37.4v8c0,1.2,1.5,2,3.2,2H29c1.8,0,3.2-0.9,3.2-2v-8H20.4z
	 M29.2,45.5h-5.4v-2.8h5.4V45.5z"/>
</svg>
